<svg width="456" height="" viewBox="0 0 936 584" fill="none" xmlns="http://www.w3.org/2000/svg" xmlns:xlink="http://www.w3.org/1999/xlink" class="ignore-no-scaling m-auto mt-3 mb-8"><filter id="noise"><feTurbulence baseFrequency="0.5"></feTurbulence></filter><g clip-path="url(#clip0_18_20)"><g filter="url(#filter0_i_18_20)"><path fill-rule="evenodd" clip-rule="evenodd" d="M0 24C0 10.7452 10.7452 0 24 0H912C925.255 0 936 10.7452 936 24V560C936 573.255 925.255 584 912 584H24C10.7452 584 0 573.255 0 560V24ZM344 532C344 543.046 335.046 552 324 552C312.954 552 304 543.046 304 532C304 520.954 312.954 512 324 512C335.046 512 344 520.954 344 532ZM228 568C239.046 568 248 559.046 248 548C248 536.954 239.046 528 228 528C216.954 528 208 536.954 208 548C208 559.046 216.954 568 228 568ZM708 568C719.046 568 728 559.046 728 548C728 536.954 719.046 528 708 528C696.954 528 688 536.954 688 548C688 559.046 696.954 568 708 568ZM612 552C623.046 552 632 543.046 632 532C632 520.954 623.046 512 612 512C600.954 512 592 520.954 592 532C592 543.046 600.954 552 612 552ZM268 184C226.026 184 192 218.026 192 260C192 301.974 226.026 336 268 336H668C709.974 336 744 301.974 744 260C744 218.026 709.974 184 668 184H268Z" fill="url(#paint0_radial_18_20)"></path><path fill-rule="evenodd" clip-rule="evenodd" d="M0 24C0 10.7452 10.7452 0 24 0H912C925.255 0 936 10.7452 936 24V560C936 573.255 925.255 584 912 584H24C10.7452 584 0 573.255 0 560V24ZM344 532C344 543.046 335.046 552 324 552C312.954 552 304 543.046 304 532C304 520.954 312.954 512 324 512C335.046 512 344 520.954 344 532ZM228 568C239.046 568 248 559.046 248 548C248 536.954 239.046 528 228 528C216.954 528 208 536.954 208 548C208 559.046 216.954 568 228 568ZM708 568C719.046 568 728 559.046 728 548C728 536.954 719.046 528 708 528C696.954 528 688 536.954 688 548C688 559.046 696.954 568 708 568ZM612 552C623.046 552 632 543.046 632 532C632 520.954 623.046 512 612 512C600.954 512 592 520.954 592 532C592 543.046 600.954 552 612 552ZM268 184C226.026 184 192 218.026 192 260C192 301.974 226.026 336 268 336H668C709.974 336 744 301.974 744 260C744 218.026 709.974 184 668 184H268Z" fill="url(#pattern0)" fill-opacity="0.5"></path></g><g filter="url(#filter1_ii_18_20)"><circle cx="24" cy="560" r="8" fill="#AFAFAF"></circle><circle cx="24" cy="560" r="8" fill="url(#pattern1)" fill-opacity="0.25"></circle><path d="M24 556V564M28 560H20" stroke="#525252" stroke-width="2"></path></g><g filter="url(#filter2_ii_18_20)"><circle cx="912" cy="560" r="8" fill="#AFAFAF"></circle><circle cx="912" cy="560" r="8" fill="url(#pattern2)" fill-opacity="0.05"></circle><path d="M912 556V564M916 560H908" stroke="#525252" stroke-width="2"></path></g><g filter="url(#filter3_ii_18_20)"><circle cx="912" cy="24" r="8" fill="#AFAFAF"></circle><circle cx="912" cy="24" r="8" fill="url(#pattern3)" fill-opacity="0.05"></circle><path d="M912 20V28M916 24H908" stroke="#525252" stroke-width="2"></path></g><g filter="url(#filter4_ii_18_20)"><circle cx="24" cy="24" r="8" fill="#AFAFAF"></circle><circle cx="24" cy="24" r="8" fill="url(#pattern4)" fill-opacity="0.05"></circle><path d="M24 20V28M28 24H20" stroke="#525252" stroke-width="2"></path></g><path fill-rule="evenodd" clip-rule="evenodd" d="M136 584L164.97 468.119C166.751 460.997 173.151 456 180.492 456H771.508C778.849 456 785.249 460.997 787.03 468.119L816 584H136ZM324 552C335.046 552 344 543.046 344 532C344 520.954 335.046 512 324 512C312.954 512 304 520.954 304 532C304 543.046 312.954 552 324 552ZM248 548C248 559.046 239.046 568 228 568C216.954 568 208 559.046 208 548C208 536.954 216.954 528 228 528C239.046 528 248 536.954 248 548ZM728 548C728 559.046 719.046 568 708 568C696.954 568 688 559.046 688 548C688 536.954 696.954 528 708 528C719.046 528 728 536.954 728 548ZM632 532C632 543.046 623.046 552 612 552C600.954 552 592 543.046 592 532C592 520.954 600.954 512 612 512C623.046 512 632 520.954 632 532Z" fill="url(#paint1_radial_18_20)"></path><path fill-rule="evenodd" clip-rule="evenodd" d="M136 584L164.97 468.119C166.751 460.997 173.151 456 180.492 456H771.508C778.849 456 785.249 460.997 787.03 468.119L816 584H136ZM324 552C335.046 552 344 543.046 344 532C344 520.954 335.046 512 324 512C312.954 512 304 520.954 304 532C304 543.046 312.954 552 324 552ZM248 548C248 559.046 239.046 568 228 568C216.954 568 208 559.046 208 548C208 536.954 216.954 528 228 528C239.046 528 248 536.954 248 548ZM728 548C728 559.046 719.046 568 708 568C696.954 568 688 559.046 688 548C688 536.954 696.954 528 708 528C719.046 528 728 536.954 728 548ZM632 532C632 543.046 623.046 552 612 552C600.954 552 592 543.046 592 532C592 520.954 600.954 512 612 512C623.046 512 632 520.954 632 532Z" fill="url(#pattern5)" fill-opacity="0.5"></path><g filter="url(#filter5_di_18_20)"><path d="M164.97 468.119L136 584H816L787.03 468.119C785.249 460.997 778.849 456 771.508 456H180.492C173.151 456 166.751 460.997 164.97 468.119Z" fill="#24242D" fill-opacity="0.01" shape-rendering="crispEdges"></path></g><g filter="url(#filter6_i_18_20)"><mask id="cover_mask" style="mask-type:alpha" maskUnits="userSpaceOnUse" x="48" y="48" width="840" height="368"><path fill-rule="evenodd" clip-rule="evenodd" d="M888 416H48V96L96 48H840L888 96V416ZM268 184C226.026 184 192 218.026 192 260C192 301.974 226.026 336 268 336H668C709.974 336 744 301.974 744 260C744 218.026 709.974 184 668 184H268Z" fill="#D9D9D9"></path></mask><g mask="url(#cover_mask)"><svg width="840" height="368" viewBox="0 0 840 368" x="48" y="48"><rect width="840" height="368" fill="#84A98C"></rect><rect y="136" width="840" height="50.6667" fill="#354F52"></rect><rect y="186.667" width="840" height="50.6667" fill="#52796F"></rect><rect y="237.333" width="840" height="50.6667" fill="#354F52"></rect><rect x="128" y="120" width="584" height="184" rx="92" fill="#131314" stroke="#84A98C" stroke-width="32"></rect><g clip-path="url(#clip0_18_54)"><ellipse cx="320" cy="68" rx="24" ry="40" fill="#354F52"></ellipse><path fill-rule="evenodd" clip-rule="evenodd" d="M343.605 60.7377L324 80.3432V63.6569L340.491 47.1654C341.994 51.262 343.067 55.8441 343.605 60.7377ZM343.895 71.7615L324 91.6569V107.447C334.624 104.476 342.882 89.8716 343.895 71.7615ZM316 107.447V91.6569L315.973 91.6301L315.944 91.6004L315.914 91.5705L315.883 91.5402L315.853 91.5096L315.822 91.4787L315.79 91.4474L315.759 91.4158L315.727 91.3839L315.695 91.3517L315.662 91.3192L315.629 91.2863L315.596 91.2532L315.563 91.2197L315.529 91.1859L315.495 91.1518L315.46 91.1174L315.426 91.0826L315.391 91.0476L315.355 91.0123L315.32 90.9766L315.284 90.9407L315.248 90.9044L315.211 90.8679L315.174 90.831L315.137 90.7939L315.1 90.7564L315.062 90.7187L315.024 90.6806L314.985 90.6423L314.947 90.6037L314.908 90.5647L314.869 90.5255L314.829 90.486L314.789 90.4462L314.749 90.4062L314.709 90.3658L314.668 90.3252L314.627 90.2842L314.586 90.243L314.545 90.2015L314.503 90.1598L314.461 90.1177L314.418 90.0754L314.376 90.0328L314.333 89.9899L314.29 89.9468L314.246 89.9033L314.203 89.8596L314.159 89.8157L314.115 89.7715L314.07 89.727L314.025 89.6822L313.98 89.6372L313.935 89.5919L313.889 89.5463L313.844 89.5005L313.798 89.4545L313.751 89.4081L313.705 89.3615L313.658 89.3147L313.611 89.2676L313.563 89.2203L313.516 89.1727L313.468 89.1248L313.42 89.0767L313.371 89.0284L313.323 88.9798L313.274 88.9309L313.225 88.8818L313.176 88.8325L313.126 88.783L313.076 88.7331L313.026 88.6831L312.976 88.6328L312.925 88.5823L312.875 88.5315L312.824 88.4805L312.772 88.4293L312.721 88.3778L312.669 88.3261L312.617 88.2742L312.565 88.2221L312.513 88.1697L312.46 88.1171L312.407 88.0643L312.354 88.0112L312.301 87.958L312.248 87.9045L312.194 87.8508L312.14 87.7968L312.086 87.7427L312.031 87.6883L311.977 87.6338L311.922 87.579L311.867 87.524L311.812 87.4688L311.756 87.4133L311.701 87.3577L311.645 87.3019L311.589 87.2458L311.533 87.1896L311.476 87.1331L311.42 87.0765L311.363 87.0196L311.306 86.9626L311.248 86.9053L311.191 86.8479L311.133 86.7902L311.075 86.7324L311.017 86.6744L310.959 86.6162L310.901 86.5577L310.842 86.4991L310.783 86.4403L310.724 86.3814L310.665 86.3222L310.606 86.2629L310.546 86.2033L310.487 86.1436L310.427 86.0837L310.367 86.0236L310.306 85.9634L310.246 85.903L310.185 85.8424L310.125 85.7816L310.064 85.7206L310.003 85.6595L309.941 85.5982L309.88 85.5367L309.818 85.4751L309.756 85.4133L309.694 85.3513L309.632 85.2892L309.57 85.2269L309.508 85.1645L309.445 85.1018L309.382 85.0391L309.319 84.9761L309.256 84.913L309.193 84.8498L309.129 84.7864L309.066 84.7228L309.002 84.6591L308.938 84.5953L308.874 84.5312L308.81 84.4671L308.746 84.4028L308.681 84.3383L308.617 84.2737L308.552 84.209L308.487 84.1441L308.422 84.0791L308.357 84.0139L308.292 83.9486L308.226 83.8832L308.161 83.8176L308.095 83.7519L308.029 83.6861L307.963 83.6201L307.897 83.554L307.831 83.4878L307.764 83.4214L307.698 83.3549L307.631 83.2883L307.565 83.2216L307.498 83.1547L307.431 83.0877L307.364 83.0206L307.296 82.9534L307.229 82.886L307.162 82.8186L307.094 82.751L307.026 82.6833L306.959 82.6155L306.891 82.5476L306.823 82.4795L306.754 82.4114L306.686 82.3432L306.618 82.2748L306.549 82.2063L306.481 82.1378L306.412 82.0691L306.343 82.0003L306.275 81.9315L306.206 81.8625L306.136 81.7934L306.067 81.7242L305.998 81.655L305.929 81.5856L305.859 81.5162L305.79 81.4466L305.72 81.377L305.65 81.3073L305.581 81.2374L305.511 81.1675L305.441 81.0976L305.371 81.0275L305.3 80.9573L305.23 80.8871L305.16 80.8168L305.089 80.7464L305.019 80.6759L304.948 80.6053L304.878 80.5347L304.807 80.464L304.736 80.3932L304.665 80.3224L304.595 80.2514L304.524 80.1804L304.452 80.1094L304.381 80.0383L304.31 79.9671L304.239 79.8958L304.168 79.8245L304.096 79.7531L304.025 79.6816L303.953 79.6101L303.882 79.5386L303.81 79.4669L303.738 79.3953L303.667 79.3235L303.595 79.2517L303.523 79.1799L303.451 79.108L303.379 79.0361L303.307 78.9641L303.235 78.892L303.163 78.82L303.091 78.7478L303.019 78.6756L302.947 78.6034L302.874 78.5312L302.802 78.4589L302.73 78.3865L302.657 78.3142L302.585 78.2418L302.512 78.1693L302.44 78.0968L302.367 78.0243L302.295 77.9518L302.222 77.8792L302.15 77.8066L302.077 77.734L302.004 77.6613L301.932 77.5887L301.859 77.516L301.786 77.4432L301.714 77.3705L301.641 77.2977L301.568 77.2249L301.495 77.1521L301.422 77.0793L301.35 77.0065L301.277 76.9336L301.204 76.8608L301.131 76.7879L301.058 76.715L300.985 76.6421L300.912 76.5692L300.839 76.4963L300.766 76.4234L300.694 76.3505L300.621 76.2776L300.548 76.2047L300.475 76.1318L300.402 76.0588L300.329 75.9859L300.256 75.913L300.183 75.8401L300.11 75.7672L300.037 75.6943L299.965 75.6214L299.892 75.5486L299.819 75.4757L299.746 75.4029L299.673 75.33L299.6 75.2572L299.527 75.1844L299.455 75.1116L299.382 75.0388L299.309 74.9661L299.236 74.8934L299.164 74.8207L299.091 74.748L299.018 74.6753L298.946 74.6027L298.873 74.5301L298.801 74.4575L298.728 74.385L298.656 74.3125L298.583 74.24L298.511 74.1675L298.438 74.0951L298.366 74.0227L298.293 73.9504L298.221 73.8781L298.149 73.8058L298.077 73.7336L298.005 73.6614L297.932 73.5893L297.86 73.5172L297.788 73.4452L297.716 73.3732L297.644 73.3012L297.572 73.2293L297.501 73.1575L297.429 73.0857L297.357 73.014L297.285 72.9423L297.214 72.8706L297.142 72.7991L297.071 72.7276L296.999 72.6561L296.928 72.5847L296.856 72.5134L296.785 72.4421L296.714 72.3709L296.643 72.2998L296.572 72.2287L296.501 72.1577L296.43 72.0868L296.359 72.0159L296.288 71.9451L296.217 71.8744L296.147 71.8038L296.105 71.7617C297.118 89.8716 305.376 104.476 316 107.447ZM336.841 39.5018C333.409 33.8663 328.962 29.9406 324 28.553V52.3432L336.841 39.5018ZM320.017 28C320.011 28 320.006 28 320 28C319.994 28 319.989 28 319.983 28H320.017ZM316 28.5531C311.037 29.9407 306.591 33.8664 303.159 39.5019L316 52.3432V28.5531ZM299.509 47.1655L316 63.6569V80.3432L315.963 80.3065L315.903 80.2461L315.842 80.1855L315.782 80.1247L315.721 80.0638L315.659 80.0026L315.598 79.9413L315.537 79.8799L315.475 79.8183L315.413 79.7565L315.351 79.6945L315.289 79.6324L315.227 79.5701L315.164 79.5076L315.102 79.445L315.039 79.3822L314.976 79.3193L314.913 79.2562L314.85 79.1929L314.786 79.1295L314.723 79.066L314.659 79.0023L314.595 78.9384L314.531 78.8744L314.467 78.8102L314.403 78.7459L314.338 78.6815L314.274 78.6169L314.209 78.5521L314.144 78.4873L314.079 78.4222L314.014 78.3571L313.949 78.2918L313.883 78.2263L313.818 78.1608L313.752 78.0951L313.686 78.0292L313.62 77.9632L313.554 77.8971L313.488 77.8309L313.421 77.7645L313.355 77.6981L313.288 77.6314L313.221 77.5647L313.155 77.4978L313.088 77.4309L313.021 77.3637L312.953 77.2965L312.886 77.2292L312.819 77.1617L312.751 77.0941L312.683 77.0264L312.615 76.9586L312.548 76.8907L312.479 76.8227L312.411 76.7545L312.343 76.6863L312.275 76.6179L312.206 76.5495L312.138 76.4809L312.069 76.4122L312 76.3435L311.931 76.2746L311.862 76.2056L311.793 76.1366L311.724 76.0674L311.655 75.9981L311.586 75.9288L311.516 75.8593L311.447 75.7898L311.377 75.7201L311.307 75.6504L311.237 75.5806L311.167 75.5107L311.097 75.4407L311.027 75.3706L310.957 75.3005L310.887 75.2302L310.817 75.1599L310.746 75.0895L310.676 75.019L310.605 74.9485L310.535 74.8778L310.464 74.8071L310.393 74.7364L310.322 74.6655L310.251 74.5946L310.18 74.5236L310.109 74.4525L310.038 74.3814L309.967 74.3102L309.896 74.2389L309.824 74.1676L309.753 74.0962L309.682 74.0248L309.61 73.9533L309.538 73.8817L309.467 73.8101L309.395 73.7384L309.323 73.6667L309.252 73.5949L309.18 73.523L309.108 73.4512L309.036 73.3792L308.964 73.3072L308.892 73.2352L308.82 73.1631L308.748 73.091L308.676 73.0188L308.603 72.9466L308.531 72.8743L308.459 72.802L308.386 72.7297L308.314 72.6573L308.242 72.5849L308.169 72.5125L308.097 72.44L308.024 72.3675L307.952 72.2949L307.879 72.2224L307.807 72.1498L307.734 72.0771L307.661 72.0045L307.589 71.9318L307.516 71.8591L307.443 71.7864L307.37 71.7136L307.298 71.6409L307.225 71.5681L307.152 71.4953L307.079 71.4225L307.006 71.3496L306.934 71.2768L306.861 71.2039L306.788 71.1311L306.715 71.0582L306.642 70.9853L306.569 70.9124L306.496 70.8395L306.423 70.7666L306.35 70.6937L306.278 70.6207L306.205 70.5478L306.132 70.4749L306.059 70.402L305.986 70.3291L305.913 70.2562L305.84 70.1833L305.767 70.1104L305.694 70.0375L305.621 69.9646L305.549 69.8917L305.476 69.8189L305.403 69.746L305.33 69.6732L305.257 69.6003L305.184 69.5275L305.112 69.4548L305.039 69.382L304.966 69.3092L304.893 69.2365L304.821 69.1638L304.748 69.0911L304.675 69.0185L304.603 68.9458L304.53 68.8732L304.457 68.8007L304.385 68.7281L304.312 68.6556L304.24 68.5831L304.167 68.5107L304.095 68.4383L304.023 68.3659L303.95 68.2936L303.878 68.2212L303.806 68.149L303.734 68.0768L303.661 68.0046L303.589 67.9325L303.517 67.8604L303.445 67.7883L303.373 67.7163L303.301 67.6444L303.229 67.5725L303.157 67.5006L303.086 67.4288L303.014 67.3571L302.942 67.2854L302.871 67.2138L302.799 67.1422L302.727 67.0707L302.656 66.9992L302.585 66.9279L302.513 66.8565L302.442 66.7853L302.371 66.7141L302.3 66.6429L302.229 66.5718L302.158 66.5008L302.087 66.4299L302.016 66.3591L301.945 66.2883L301.874 66.2176L301.804 66.1469L301.733 66.0763L301.663 66.0059L301.592 65.9355L301.522 65.8651L301.452 65.7949L301.381 65.7247L301.311 65.6546L301.241 65.5846L301.172 65.5147L301.102 65.4449L301.032 65.3752L300.962 65.3055L300.893 65.236L300.823 65.1665L300.754 65.0971L300.685 65.0279L300.615 64.9587L300.546 64.8896L300.477 64.8206L300.409 64.7517L300.34 64.6829L300.271 64.6143L300.202 64.5457L300.134 64.4772L300.066 64.4088L299.997 64.3406L299.929 64.2724L299.861 64.2044L299.793 64.1365L299.725 64.0686L299.658 64.0009L299.59 63.9333L299.523 63.8659L299.455 63.7985L299.388 63.7313L299.321 63.6642L299.254 63.5972L299.187 63.5303L299.12 63.4635L299.054 63.3969L298.987 63.3304L298.921 63.264L298.855 63.1978L298.788 63.1316L298.722 63.0657L298.657 62.9998L298.591 62.9341L298.525 62.8685L298.46 62.803L298.395 62.7377L298.329 62.6726L298.264 62.6075L298.199 62.5426L298.135 62.4779L298.07 62.4133L298.006 62.3488L297.941 62.2845L297.877 62.2203L297.813 62.1563L297.749 62.0924L297.685 62.0287L297.622 61.9651L297.558 61.9017L297.495 61.8384L297.432 61.7753L297.369 61.7123L297.306 61.6496L297.244 61.5869L297.181 61.5244L297.119 61.4621L297.057 61.4L296.995 61.338L296.933 61.2762L296.871 61.2145L296.81 61.153L296.749 61.0917L296.687 61.0306L296.626 60.9696L296.566 60.9088L296.505 60.8482L296.445 60.7877L296.395 60.7378C296.933 55.8442 298.006 51.2621 299.509 47.1655Z" fill="#52796F"></path></g><g clip-path="url(#clip1_18_54)"><ellipse cx="420" cy="68" rx="24" ry="40" fill="#354F52"></ellipse><path fill-rule="evenodd" clip-rule="evenodd" d="M443.605 60.7377L424 80.3432V63.6569L440.491 47.1654C441.994 51.262 443.067 55.8441 443.605 60.7377ZM443.895 71.7615L424 91.6569V107.447C434.624 104.476 442.882 89.8716 443.895 71.7615ZM416 107.447V91.6569L415.973 91.6301L415.944 91.6004L415.914 91.5705L415.883 91.5402L415.853 91.5096L415.822 91.4787L415.79 91.4474L415.759 91.4158L415.727 91.3839L415.695 91.3517L415.662 91.3192L415.629 91.2863L415.596 91.2532L415.563 91.2197L415.529 91.1859L415.495 91.1518L415.46 91.1174L415.426 91.0826L415.391 91.0476L415.355 91.0123L415.32 90.9766L415.284 90.9407L415.248 90.9044L415.211 90.8679L415.174 90.831L415.137 90.7939L415.1 90.7564L415.062 90.7187L415.024 90.6806L414.985 90.6423L414.947 90.6037L414.908 90.5647L414.869 90.5255L414.829 90.486L414.789 90.4462L414.749 90.4062L414.709 90.3658L414.668 90.3252L414.627 90.2842L414.586 90.243L414.545 90.2015L414.503 90.1598L414.461 90.1177L414.418 90.0754L414.376 90.0328L414.333 89.9899L414.29 89.9468L414.246 89.9033L414.203 89.8596L414.159 89.8157L414.115 89.7715L414.07 89.727L414.025 89.6822L413.98 89.6372L413.935 89.5919L413.889 89.5463L413.844 89.5005L413.798 89.4545L413.751 89.4081L413.705 89.3615L413.658 89.3147L413.611 89.2676L413.563 89.2203L413.516 89.1727L413.468 89.1248L413.42 89.0767L413.371 89.0284L413.323 88.9798L413.274 88.9309L413.225 88.8818L413.176 88.8325L413.126 88.783L413.076 88.7331L413.026 88.6831L412.976 88.6328L412.925 88.5823L412.875 88.5315L412.824 88.4805L412.772 88.4293L412.721 88.3778L412.669 88.3261L412.617 88.2742L412.565 88.2221L412.513 88.1697L412.46 88.1171L412.407 88.0643L412.354 88.0112L412.301 87.958L412.248 87.9045L412.194 87.8508L412.14 87.7968L412.086 87.7427L412.031 87.6883L411.977 87.6338L411.922 87.579L411.867 87.524L411.812 87.4688L411.756 87.4133L411.701 87.3577L411.645 87.3019L411.589 87.2458L411.533 87.1896L411.476 87.1331L411.42 87.0765L411.363 87.0196L411.306 86.9626L411.248 86.9053L411.191 86.8479L411.133 86.7902L411.075 86.7324L411.017 86.6744L410.959 86.6162L410.901 86.5577L410.842 86.4991L410.783 86.4403L410.724 86.3814L410.665 86.3222L410.606 86.2629L410.546 86.2033L410.487 86.1436L410.427 86.0837L410.367 86.0236L410.306 85.9634L410.246 85.903L410.185 85.8424L410.125 85.7816L410.064 85.7206L410.003 85.6595L409.941 85.5982L409.88 85.5367L409.818 85.4751L409.756 85.4133L409.694 85.3513L409.632 85.2892L409.57 85.2269L409.508 85.1645L409.445 85.1018L409.382 85.0391L409.319 84.9761L409.256 84.913L409.193 84.8498L409.129 84.7864L409.066 84.7228L409.002 84.6591L408.938 84.5953L408.874 84.5312L408.81 84.4671L408.746 84.4028L408.681 84.3383L408.617 84.2737L408.552 84.209L408.487 84.1441L408.422 84.0791L408.357 84.0139L408.292 83.9486L408.226 83.8832L408.161 83.8176L408.095 83.7519L408.029 83.6861L407.963 83.6201L407.897 83.554L407.831 83.4878L407.764 83.4214L407.698 83.3549L407.631 83.2883L407.565 83.2216L407.498 83.1547L407.431 83.0877L407.364 83.0206L407.296 82.9534L407.229 82.886L407.162 82.8186L407.094 82.751L407.026 82.6833L406.959 82.6155L406.891 82.5476L406.823 82.4795L406.754 82.4114L406.686 82.3432L406.618 82.2748L406.549 82.2063L406.481 82.1378L406.412 82.0691L406.343 82.0003L406.275 81.9315L406.206 81.8625L406.136 81.7934L406.067 81.7242L405.998 81.655L405.929 81.5856L405.859 81.5162L405.79 81.4466L405.72 81.377L405.65 81.3073L405.581 81.2374L405.511 81.1675L405.441 81.0976L405.371 81.0275L405.3 80.9573L405.23 80.8871L405.16 80.8168L405.089 80.7464L405.019 80.6759L404.948 80.6053L404.878 80.5347L404.807 80.464L404.736 80.3932L404.665 80.3224L404.595 80.2514L404.524 80.1804L404.452 80.1094L404.381 80.0383L404.31 79.9671L404.239 79.8958L404.168 79.8245L404.096 79.7531L404.025 79.6816L403.953 79.6101L403.882 79.5386L403.81 79.4669L403.738 79.3953L403.667 79.3235L403.595 79.2517L403.523 79.1799L403.451 79.108L403.379 79.0361L403.307 78.9641L403.235 78.892L403.163 78.82L403.091 78.7478L403.019 78.6756L402.947 78.6034L402.874 78.5312L402.802 78.4589L402.73 78.3865L402.657 78.3142L402.585 78.2418L402.512 78.1693L402.44 78.0968L402.367 78.0243L402.295 77.9518L402.222 77.8792L402.15 77.8066L402.077 77.734L402.004 77.6613L401.932 77.5887L401.859 77.516L401.786 77.4432L401.714 77.3705L401.641 77.2977L401.568 77.2249L401.495 77.1521L401.422 77.0793L401.35 77.0065L401.277 76.9336L401.204 76.8608L401.131 76.7879L401.058 76.715L400.985 76.6421L400.912 76.5692L400.839 76.4963L400.766 76.4234L400.694 76.3505L400.621 76.2776L400.548 76.2047L400.475 76.1318L400.402 76.0588L400.329 75.9859L400.256 75.913L400.183 75.8401L400.11 75.7672L400.037 75.6943L399.965 75.6214L399.892 75.5486L399.819 75.4757L399.746 75.4029L399.673 75.33L399.6 75.2572L399.527 75.1844L399.455 75.1116L399.382 75.0388L399.309 74.9661L399.236 74.8934L399.164 74.8207L399.091 74.748L399.018 74.6753L398.946 74.6027L398.873 74.5301L398.801 74.4575L398.728 74.385L398.656 74.3125L398.583 74.24L398.511 74.1675L398.438 74.0951L398.366 74.0227L398.293 73.9504L398.221 73.8781L398.149 73.8058L398.077 73.7336L398.005 73.6614L397.932 73.5893L397.86 73.5172L397.788 73.4452L397.716 73.3732L397.644 73.3012L397.572 73.2293L397.501 73.1575L397.429 73.0857L397.357 73.014L397.285 72.9423L397.214 72.8706L397.142 72.7991L397.071 72.7276L396.999 72.6561L396.928 72.5847L396.856 72.5134L396.785 72.4421L396.714 72.3709L396.643 72.2998L396.572 72.2287L396.501 72.1577L396.43 72.0868L396.359 72.0159L396.288 71.9451L396.217 71.8744L396.147 71.8038L396.105 71.7617C397.118 89.8716 405.376 104.476 416 107.447ZM436.841 39.5018C433.409 33.8663 428.962 29.9406 424 28.553V52.3432L436.841 39.5018ZM420.017 28C420.011 28 420.006 28 420 28C419.994 28 419.989 28 419.983 28H420.017ZM416 28.5531C411.037 29.9407 406.591 33.8664 403.159 39.5019L416 52.3432V28.5531ZM399.509 47.1655L416 63.6569V80.3432L415.963 80.3065L415.903 80.2461L415.842 80.1855L415.782 80.1247L415.721 80.0638L415.659 80.0026L415.598 79.9413L415.537 79.8799L415.475 79.8183L415.413 79.7565L415.351 79.6945L415.289 79.6324L415.227 79.5701L415.164 79.5076L415.102 79.445L415.039 79.3822L414.976 79.3193L414.913 79.2562L414.85 79.1929L414.786 79.1295L414.723 79.066L414.659 79.0023L414.595 78.9384L414.531 78.8744L414.467 78.8102L414.403 78.7459L414.338 78.6815L414.274 78.6169L414.209 78.5521L414.144 78.4873L414.079 78.4222L414.014 78.3571L413.949 78.2918L413.883 78.2263L413.818 78.1608L413.752 78.0951L413.686 78.0292L413.62 77.9632L413.554 77.8971L413.488 77.8309L413.421 77.7645L413.355 77.6981L413.288 77.6314L413.221 77.5647L413.155 77.4978L413.088 77.4309L413.021 77.3637L412.953 77.2965L412.886 77.2292L412.819 77.1617L412.751 77.0941L412.683 77.0264L412.615 76.9586L412.548 76.8907L412.479 76.8227L412.411 76.7545L412.343 76.6863L412.275 76.6179L412.206 76.5495L412.138 76.4809L412.069 76.4122L412 76.3435L411.931 76.2746L411.862 76.2056L411.793 76.1366L411.724 76.0674L411.655 75.9981L411.586 75.9288L411.516 75.8593L411.447 75.7898L411.377 75.7201L411.307 75.6504L411.237 75.5806L411.167 75.5107L411.097 75.4407L411.027 75.3706L410.957 75.3005L410.887 75.2302L410.817 75.1599L410.746 75.0895L410.676 75.019L410.605 74.9485L410.535 74.8778L410.464 74.8071L410.393 74.7364L410.322 74.6655L410.251 74.5946L410.18 74.5236L410.109 74.4525L410.038 74.3814L409.967 74.3102L409.896 74.2389L409.824 74.1676L409.753 74.0962L409.682 74.0248L409.61 73.9533L409.538 73.8817L409.467 73.8101L409.395 73.7384L409.323 73.6667L409.252 73.5949L409.18 73.523L409.108 73.4512L409.036 73.3792L408.964 73.3072L408.892 73.2352L408.82 73.1631L408.748 73.091L408.676 73.0188L408.603 72.9466L408.531 72.8743L408.459 72.802L408.386 72.7297L408.314 72.6573L408.242 72.5849L408.169 72.5125L408.097 72.44L408.024 72.3675L407.952 72.2949L407.879 72.2224L407.807 72.1498L407.734 72.0771L407.661 72.0045L407.589 71.9318L407.516 71.8591L407.443 71.7864L407.37 71.7136L407.298 71.6409L407.225 71.5681L407.152 71.4953L407.079 71.4225L407.006 71.3496L406.934 71.2768L406.861 71.2039L406.788 71.1311L406.715 71.0582L406.642 70.9853L406.569 70.9124L406.496 70.8395L406.423 70.7666L406.35 70.6937L406.278 70.6207L406.205 70.5478L406.132 70.4749L406.059 70.402L405.986 70.3291L405.913 70.2562L405.84 70.1833L405.767 70.1104L405.694 70.0375L405.621 69.9646L405.549 69.8917L405.476 69.8189L405.403 69.746L405.33 69.6732L405.257 69.6003L405.184 69.5275L405.112 69.4548L405.039 69.382L404.966 69.3092L404.893 69.2365L404.821 69.1638L404.748 69.0911L404.675 69.0185L404.603 68.9458L404.53 68.8732L404.457 68.8007L404.385 68.7281L404.312 68.6556L404.24 68.5831L404.167 68.5107L404.095 68.4383L404.023 68.3659L403.95 68.2936L403.878 68.2212L403.806 68.149L403.734 68.0768L403.661 68.0046L403.589 67.9325L403.517 67.8604L403.445 67.7883L403.373 67.7163L403.301 67.6444L403.229 67.5725L403.157 67.5006L403.086 67.4288L403.014 67.3571L402.942 67.2854L402.871 67.2138L402.799 67.1422L402.727 67.0707L402.656 66.9992L402.585 66.9279L402.513 66.8565L402.442 66.7853L402.371 66.7141L402.3 66.6429L402.229 66.5718L402.158 66.5008L402.087 66.4299L402.016 66.3591L401.945 66.2883L401.874 66.2176L401.804 66.1469L401.733 66.0763L401.663 66.0059L401.592 65.9355L401.522 65.8651L401.452 65.7949L401.381 65.7247L401.311 65.6546L401.241 65.5846L401.172 65.5147L401.102 65.4449L401.032 65.3752L400.962 65.3055L400.893 65.236L400.823 65.1665L400.754 65.0971L400.685 65.0279L400.615 64.9587L400.546 64.8896L400.477 64.8206L400.409 64.7517L400.34 64.6829L400.271 64.6143L400.202 64.5457L400.134 64.4772L400.066 64.4088L399.997 64.3406L399.929 64.2724L399.861 64.2044L399.793 64.1365L399.725 64.0686L399.658 64.0009L399.59 63.9333L399.523 63.8659L399.455 63.7985L399.388 63.7313L399.321 63.6642L399.254 63.5972L399.187 63.5303L399.12 63.4635L399.054 63.3969L398.987 63.3304L398.921 63.264L398.855 63.1978L398.788 63.1316L398.722 63.0657L398.657 62.9998L398.591 62.9341L398.525 62.8685L398.46 62.803L398.395 62.7377L398.329 62.6726L398.264 62.6075L398.199 62.5426L398.135 62.4779L398.07 62.4133L398.006 62.3488L397.941 62.2845L397.877 62.2203L397.813 62.1563L397.749 62.0924L397.685 62.0287L397.622 61.9651L397.558 61.9017L397.495 61.8384L397.432 61.7753L397.369 61.7123L397.306 61.6496L397.244 61.5869L397.181 61.5244L397.119 61.4621L397.057 61.4L396.995 61.338L396.933 61.2762L396.871 61.2145L396.81 61.153L396.749 61.0917L396.687 61.0306L396.626 60.9696L396.566 60.9088L396.505 60.8482L396.445 60.7877L396.395 60.7378C396.933 55.8442 398.006 51.2621 399.509 47.1655Z" fill="#52796F"></path></g><g clip-path="url(#clip2_18_54)"><ellipse cx="520" cy="68" rx="24" ry="40" fill="#354F52"></ellipse><path fill-rule="evenodd" clip-rule="evenodd" d="M543.605 60.7377L524 80.3432V63.6569L540.491 47.1654C541.994 51.262 543.067 55.8441 543.605 60.7377ZM543.895 71.7615L524 91.6569V107.447C534.624 104.476 542.882 89.8716 543.895 71.7615ZM516 107.447V91.6569L515.973 91.6301L515.944 91.6004L515.914 91.5705L515.883 91.5402L515.853 91.5096L515.822 91.4787L515.79 91.4474L515.759 91.4158L515.727 91.3839L515.695 91.3517L515.662 91.3192L515.629 91.2863L515.596 91.2532L515.563 91.2197L515.529 91.1859L515.495 91.1518L515.46 91.1174L515.426 91.0826L515.391 91.0476L515.355 91.0123L515.32 90.9766L515.284 90.9407L515.248 90.9044L515.211 90.8679L515.174 90.831L515.137 90.7939L515.1 90.7564L515.062 90.7187L515.024 90.6806L514.985 90.6423L514.947 90.6037L514.908 90.5647L514.869 90.5255L514.829 90.486L514.789 90.4462L514.749 90.4062L514.709 90.3658L514.668 90.3252L514.627 90.2842L514.586 90.243L514.545 90.2015L514.503 90.1598L514.461 90.1177L514.418 90.0754L514.376 90.0328L514.333 89.9899L514.29 89.9468L514.246 89.9033L514.203 89.8596L514.159 89.8157L514.115 89.7715L514.07 89.727L514.025 89.6822L513.98 89.6372L513.935 89.5919L513.889 89.5463L513.844 89.5005L513.798 89.4545L513.751 89.4081L513.705 89.3615L513.658 89.3147L513.611 89.2676L513.563 89.2203L513.516 89.1727L513.468 89.1248L513.42 89.0767L513.371 89.0284L513.323 88.9798L513.274 88.9309L513.225 88.8818L513.176 88.8325L513.126 88.783L513.076 88.7331L513.026 88.6831L512.976 88.6328L512.925 88.5823L512.875 88.5315L512.824 88.4805L512.772 88.4293L512.721 88.3778L512.669 88.3261L512.617 88.2742L512.565 88.2221L512.513 88.1697L512.46 88.1171L512.407 88.0643L512.354 88.0112L512.301 87.958L512.248 87.9045L512.194 87.8508L512.14 87.7968L512.086 87.7427L512.031 87.6883L511.977 87.6338L511.922 87.579L511.867 87.524L511.812 87.4688L511.756 87.4133L511.701 87.3577L511.645 87.3019L511.589 87.2458L511.533 87.1896L511.476 87.1331L511.42 87.0765L511.363 87.0196L511.306 86.9626L511.248 86.9053L511.191 86.8479L511.133 86.7902L511.075 86.7324L511.017 86.6744L510.959 86.6162L510.901 86.5577L510.842 86.4991L510.783 86.4403L510.724 86.3814L510.665 86.3222L510.606 86.2629L510.546 86.2033L510.487 86.1436L510.427 86.0837L510.367 86.0236L510.306 85.9634L510.246 85.903L510.185 85.8424L510.125 85.7816L510.064 85.7206L510.003 85.6595L509.941 85.5982L509.88 85.5367L509.818 85.4751L509.756 85.4133L509.694 85.3513L509.632 85.2892L509.57 85.2269L509.508 85.1645L509.445 85.1018L509.382 85.0391L509.319 84.9761L509.256 84.913L509.193 84.8498L509.129 84.7864L509.066 84.7228L509.002 84.6591L508.938 84.5953L508.874 84.5312L508.81 84.4671L508.746 84.4028L508.681 84.3383L508.617 84.2737L508.552 84.209L508.487 84.1441L508.422 84.0791L508.357 84.0139L508.292 83.9486L508.226 83.8832L508.161 83.8176L508.095 83.7519L508.029 83.6861L507.963 83.6201L507.897 83.554L507.831 83.4878L507.764 83.4214L507.698 83.3549L507.631 83.2883L507.565 83.2216L507.498 83.1547L507.431 83.0877L507.364 83.0206L507.296 82.9534L507.229 82.886L507.162 82.8186L507.094 82.751L507.026 82.6833L506.959 82.6155L506.891 82.5476L506.823 82.4795L506.754 82.4114L506.686 82.3432L506.618 82.2748L506.549 82.2063L506.481 82.1378L506.412 82.0691L506.343 82.0003L506.275 81.9315L506.206 81.8625L506.136 81.7934L506.067 81.7242L505.998 81.655L505.929 81.5856L505.859 81.5162L505.79 81.4466L505.72 81.377L505.65 81.3073L505.581 81.2374L505.511 81.1675L505.441 81.0976L505.371 81.0275L505.3 80.9573L505.23 80.8871L505.16 80.8168L505.089 80.7464L505.019 80.6759L504.948 80.6053L504.878 80.5347L504.807 80.464L504.736 80.3932L504.665 80.3224L504.595 80.2514L504.524 80.1804L504.452 80.1094L504.381 80.0383L504.31 79.9671L504.239 79.8958L504.168 79.8245L504.096 79.7531L504.025 79.6816L503.953 79.6101L503.882 79.5386L503.81 79.4669L503.738 79.3953L503.667 79.3235L503.595 79.2517L503.523 79.1799L503.451 79.108L503.379 79.0361L503.307 78.9641L503.235 78.892L503.163 78.82L503.091 78.7478L503.019 78.6756L502.947 78.6034L502.874 78.5312L502.802 78.4589L502.73 78.3865L502.657 78.3142L502.585 78.2418L502.512 78.1693L502.44 78.0968L502.367 78.0243L502.295 77.9518L502.222 77.8792L502.15 77.8066L502.077 77.734L502.004 77.6613L501.932 77.5887L501.859 77.516L501.786 77.4432L501.714 77.3705L501.641 77.2977L501.568 77.2249L501.495 77.1521L501.422 77.0793L501.35 77.0065L501.277 76.9336L501.204 76.8608L501.131 76.7879L501.058 76.715L500.985 76.6421L500.912 76.5692L500.839 76.4963L500.766 76.4234L500.694 76.3505L500.621 76.2776L500.548 76.2047L500.475 76.1318L500.402 76.0588L500.329 75.9859L500.256 75.913L500.183 75.8401L500.11 75.7672L500.037 75.6943L499.965 75.6214L499.892 75.5486L499.819 75.4757L499.746 75.4029L499.673 75.33L499.6 75.2572L499.527 75.1844L499.455 75.1116L499.382 75.0388L499.309 74.9661L499.236 74.8934L499.164 74.8207L499.091 74.748L499.018 74.6753L498.946 74.6027L498.873 74.5301L498.801 74.4575L498.728 74.385L498.656 74.3125L498.583 74.24L498.511 74.1675L498.438 74.0951L498.366 74.0227L498.293 73.9504L498.221 73.8781L498.149 73.8058L498.077 73.7336L498.005 73.6614L497.932 73.5893L497.86 73.5172L497.788 73.4452L497.716 73.3732L497.644 73.3012L497.572 73.2293L497.501 73.1575L497.429 73.0857L497.357 73.014L497.285 72.9423L497.214 72.8706L497.142 72.7991L497.071 72.7276L496.999 72.6561L496.928 72.5847L496.856 72.5134L496.785 72.4421L496.714 72.3709L496.643 72.2998L496.572 72.2287L496.501 72.1577L496.43 72.0868L496.359 72.0159L496.288 71.9451L496.217 71.8744L496.147 71.8038L496.105 71.7617C497.118 89.8716 505.376 104.476 516 107.447ZM536.841 39.5018C533.409 33.8663 528.962 29.9406 524 28.553V52.3432L536.841 39.5018ZM520.017 28C520.011 28 520.006 28 520 28C519.994 28 519.989 28 519.983 28H520.017ZM516 28.5531C511.037 29.9407 506.591 33.8664 503.159 39.5019L516 52.3432V28.5531ZM499.509 47.1655L516 63.6569V80.3432L515.963 80.3065L515.903 80.2461L515.842 80.1855L515.782 80.1247L515.721 80.0638L515.659 80.0026L515.598 79.9413L515.537 79.8799L515.475 79.8183L515.413 79.7565L515.351 79.6945L515.289 79.6324L515.227 79.5701L515.164 79.5076L515.102 79.445L515.039 79.3822L514.976 79.3193L514.913 79.2562L514.85 79.1929L514.786 79.1295L514.723 79.066L514.659 79.0023L514.595 78.9384L514.531 78.8744L514.467 78.8102L514.403 78.7459L514.338 78.6815L514.274 78.6169L514.209 78.5521L514.144 78.4873L514.079 78.4222L514.014 78.3571L513.949 78.2918L513.883 78.2263L513.818 78.1608L513.752 78.0951L513.686 78.0292L513.62 77.9632L513.554 77.8971L513.488 77.8309L513.421 77.7645L513.355 77.6981L513.288 77.6314L513.221 77.5647L513.155 77.4978L513.088 77.4309L513.021 77.3637L512.953 77.2965L512.886 77.2292L512.819 77.1617L512.751 77.0941L512.683 77.0264L512.615 76.9586L512.548 76.8907L512.479 76.8227L512.411 76.7545L512.343 76.6863L512.275 76.6179L512.206 76.5495L512.138 76.4809L512.069 76.4122L512 76.3435L511.931 76.2746L511.862 76.2056L511.793 76.1366L511.724 76.0674L511.655 75.9981L511.586 75.9288L511.516 75.8593L511.447 75.7898L511.377 75.7201L511.307 75.6504L511.237 75.5806L511.167 75.5107L511.097 75.4407L511.027 75.3706L510.957 75.3005L510.887 75.2302L510.817 75.1599L510.746 75.0895L510.676 75.019L510.605 74.9485L510.535 74.8778L510.464 74.8071L510.393 74.7364L510.322 74.6655L510.251 74.5946L510.18 74.5236L510.109 74.4525L510.038 74.3814L509.967 74.3102L509.896 74.2389L509.824 74.1676L509.753 74.0962L509.682 74.0248L509.61 73.9533L509.538 73.8817L509.467 73.8101L509.395 73.7384L509.323 73.6667L509.252 73.5949L509.18 73.523L509.108 73.4512L509.036 73.3792L508.964 73.3072L508.892 73.2352L508.82 73.1631L508.748 73.091L508.676 73.0188L508.603 72.9466L508.531 72.8743L508.459 72.802L508.386 72.7297L508.314 72.6573L508.242 72.5849L508.169 72.5125L508.097 72.44L508.024 72.3675L507.952 72.2949L507.879 72.2224L507.807 72.1498L507.734 72.0771L507.661 72.0045L507.589 71.9318L507.516 71.8591L507.443 71.7864L507.37 71.7136L507.298 71.6409L507.225 71.5681L507.152 71.4953L507.079 71.4225L507.006 71.3496L506.934 71.2768L506.861 71.2039L506.788 71.1311L506.715 71.0582L506.642 70.9853L506.569 70.9124L506.496 70.8395L506.423 70.7666L506.35 70.6937L506.278 70.6207L506.205 70.5478L506.132 70.4749L506.059 70.402L505.986 70.3291L505.913 70.2562L505.84 70.1833L505.767 70.1104L505.694 70.0375L505.621 69.9646L505.549 69.8917L505.476 69.8189L505.403 69.746L505.33 69.6732L505.257 69.6003L505.184 69.5275L505.112 69.4548L505.039 69.382L504.966 69.3092L504.893 69.2365L504.821 69.1638L504.748 69.0911L504.675 69.0185L504.603 68.9458L504.53 68.8732L504.457 68.8007L504.385 68.7281L504.312 68.6556L504.24 68.5831L504.167 68.5107L504.095 68.4383L504.023 68.3659L503.95 68.2936L503.878 68.2212L503.806 68.149L503.734 68.0768L503.661 68.0046L503.589 67.9325L503.517 67.8604L503.445 67.7883L503.373 67.7163L503.301 67.6444L503.229 67.5725L503.157 67.5006L503.086 67.4288L503.014 67.3571L502.942 67.2854L502.871 67.2138L502.799 67.1422L502.727 67.0707L502.656 66.9992L502.585 66.9279L502.513 66.8565L502.442 66.7853L502.371 66.7141L502.3 66.6429L502.229 66.5718L502.158 66.5008L502.087 66.4299L502.016 66.3591L501.945 66.2883L501.874 66.2176L501.804 66.1469L501.733 66.0763L501.663 66.0059L501.592 65.9355L501.522 65.8651L501.452 65.7949L501.381 65.7247L501.311 65.6546L501.241 65.5846L501.172 65.5147L501.102 65.4449L501.032 65.3752L500.962 65.3055L500.893 65.236L500.823 65.1665L500.754 65.0971L500.685 65.0279L500.615 64.9587L500.546 64.8896L500.477 64.8206L500.409 64.7517L500.34 64.6829L500.271 64.6143L500.202 64.5457L500.134 64.4772L500.066 64.4088L499.997 64.3406L499.929 64.2724L499.861 64.2044L499.793 64.1365L499.725 64.0686L499.658 64.0009L499.59 63.9333L499.523 63.8659L499.455 63.7985L499.388 63.7313L499.321 63.6642L499.254 63.5972L499.187 63.5303L499.12 63.4635L499.054 63.3969L498.987 63.3304L498.921 63.264L498.855 63.1978L498.788 63.1316L498.722 63.0657L498.657 62.9998L498.591 62.9341L498.525 62.8685L498.46 62.803L498.395 62.7377L498.329 62.6726L498.264 62.6075L498.199 62.5426L498.135 62.4779L498.07 62.4133L498.006 62.3488L497.941 62.2845L497.877 62.2203L497.813 62.1563L497.749 62.0924L497.685 62.0287L497.622 61.9651L497.558 61.9017L497.495 61.8384L497.432 61.7753L497.369 61.7123L497.306 61.6496L497.244 61.5869L497.181 61.5244L497.119 61.4621L497.057 61.4L496.995 61.338L496.933 61.2762L496.871 61.2145L496.81 61.153L496.749 61.0917L496.687 61.0306L496.626 60.9696L496.566 60.9088L496.505 60.8482L496.445 60.7877L496.395 60.7378C496.933 55.8442 498.006 51.2621 499.509 47.1655Z" fill="#52796F"></path></g><defs><clipPath id="clip0_18_54"><rect width="48" height="80" fill="white" transform="translate(296 28)"></rect></clipPath><clipPath id="clip1_18_54"><rect width="48" height="80" fill="white" transform="translate(396 28)"></rect></clipPath><clipPath id="clip2_18_54"><rect width="48" height="80" fill="white" transform="translate(496 28)"></rect></clipPath></defs></svg></g></g><path fill-rule="evenodd" clip-rule="evenodd" d="M268 184C226.026 184 192 218.026 192 260C192 301.974 226.026 336 268 336H668C709.974 336 744 301.974 744 260C744 218.026 709.974 184 668 184H268ZM568 216H368V304H568V216ZM720 260C720 288.719 696.719 312 668 312C639.281 312 616 288.719 616 260C616 231.281 639.281 208 668 208C696.719 208 720 231.281 720 260ZM268 312C296.719 312 320 288.719 320 260C320 231.281 296.719 208 268 208C239.281 208 216 231.281 216 260C216 288.719 239.281 312 268 312Z" fill="url(#paint2_radial_18_20)"></path><path fill-rule="evenodd" clip-rule="evenodd" d="M268 184C226.026 184 192 218.026 192 260C192 301.974 226.026 336 268 336H668C709.974 336 744 301.974 744 260C744 218.026 709.974 184 668 184H268ZM568 216H368V304H568V216ZM720 260C720 288.719 696.719 312 668 312C639.281 312 616 288.719 616 260C616 231.281 639.281 208 668 208C696.719 208 720 231.281 720 260ZM268 312C296.719 312 320 288.719 320 260C320 231.281 296.719 208 268 208C239.281 208 216 231.281 216 260C216 288.719 239.281 312 268 312Z" fill="url(#pattern7)" fill-opacity="0.5"></path><g filter="url(#filter7_i_18_20)"><mask id="mask1_18_20" style="mask-type:alpha" maskUnits="userSpaceOnUse" x="368" y="216" width="200" height="88"><rect x="368" y="216" width="200" height="88" fill="white"></rect></mask><g mask="url(#mask1_18_20)"><circle cx="668" cy="260" r="100.05333333333333" fill="#311C15" class="transition-[r_0.1s_ease]"></circle><circle cx="268" cy="260" r="179.94666666666666" fill="#311C15" class="transition-[r_0.1s_ease]"></circle></g></g><g filter="url(#filter8_i_18_20)"><circle cx="268" cy="260" r="48" stroke="white" stroke-width="8"></circle><mask id="mask2_18_20" style="mask-type:alpha" maskUnits="userSpaceOnUse" x="216" y="208" width="104" height="104"><circle cx="268" cy="260" r="52" fill="white"></circle></mask><g mask="url(#mask2_18_20)"><rect x="273.999" y="228" width="12" height="20" transform="rotate(180 273.999 228)" fill="white"></rect><rect x="261.999" y="292" width="12" height="20" fill="white"></rect><rect x="243.286" y="238.803" width="12" height="20" transform="rotate(120 243.286 238.803)" fill="white"></rect><rect x="292.712" y="281.196" width="12" height="20" transform="rotate(-60 292.712 281.196)" fill="white"></rect><rect x="237.286" y="270.803" width="12" height="20" transform="rotate(60 237.286 270.803)" fill="white"></rect><rect x="298.712" y="249.196" width="12" height="20" transform="rotate(-120 298.712 249.196)" fill="white"></rect></g></g><g filter="url(#filter9_i_18_20)"><circle cx="668" cy="260" r="48" stroke="white" stroke-width="8"></circle><mask id="mask3_18_20" style="mask-type:alpha" maskUnits="userSpaceOnUse" x="616" y="208" width="104" height="104"><circle cx="668" cy="260" r="52" fill="white"></circle></mask><g mask="url(#mask3_18_20)"><rect x="673.999" y="228" width="12" height="20" transform="rotate(180 673.999 228)" fill="white"></rect><rect x="661.999" y="292" width="12" height="20" fill="white"></rect><rect x="643.286" y="238.803" width="12" height="20" transform="rotate(120 643.286 238.803)" fill="white"></rect><rect x="692.712" y="281.196" width="12" height="20" transform="rotate(-60 692.712 281.196)" fill="white"></rect><rect x="637.286" y="270.803" width="12" height="20" transform="rotate(60 637.286 270.803)" fill="white"></rect><rect x="698.712" y="249.196" width="12" height="20" transform="rotate(-120 698.712 249.196)" fill="white"></rect></g></g></g><defs><filter id="filter0_i_18_20" x="0" y="0" width="936" height="588" filterUnits="userSpaceOnUse" color-interpolation-filters="sRGB"><feFlood flood-opacity="0" result="BackgroundImageFix"></feFlood><feBlend mode="normal" in="SourceGraphic" in2="BackgroundImageFix" result="shape"></feBlend><feColorMatrix in="SourceAlpha" type="matrix" values="0 0 0 0 0 0 0 0 0 0 0 0 0 0 0 0 0 0 127 0" result="hardAlpha"></feColorMatrix><feOffset dy="4"></feOffset><feGaussianBlur stdDeviation="10"></feGaussianBlur><feComposite in2="hardAlpha" operator="arithmetic" k2="-1" k3="1"></feComposite><feColorMatrix type="matrix" values="0 0 0 0 1 0 0 0 0 1 0 0 0 0 1 0 0 0 0.1 0"></feColorMatrix><feBlend mode="normal" in2="shape" result="effect1_innerShadow_18_20"></feBlend></filter><pattern id="pattern0" patternContentUnits="objectBoundingBox" width="1" height="0.986301"><use xlink:href="#image0_18_20" transform="scale(0.00106838 0.00171233)"></use></pattern><filter id="filter1_ii_18_20" x="16" y="548" width="16" height="24" filterUnits="userSpaceOnUse" color-interpolation-filters="sRGB"><feFlood flood-opacity="0" result="BackgroundImageFix"></feFlood><feBlend mode="normal" in="SourceGraphic" in2="BackgroundImageFix" result="shape"></feBlend><feColorMatrix in="SourceAlpha" type="matrix" values="0 0 0 0 0 0 0 0 0 0 0 0 0 0 0 0 0 0 127 0" result="hardAlpha"></feColorMatrix><feOffset dy="-4"></feOffset><feGaussianBlur stdDeviation="2"></feGaussianBlur><feComposite in2="hardAlpha" operator="arithmetic" k2="-1" k3="1"></feComposite><feColorMatrix type="matrix" values="0 0 0 0 0 0 0 0 0 0 0 0 0 0 0 0 0 0 0.25 0"></feColorMatrix><feBlend mode="normal" in2="shape" result="effect1_innerShadow_18_20"></feBlend><feColorMatrix in="SourceAlpha" type="matrix" values="0 0 0 0 0 0 0 0 0 0 0 0 0 0 0 0 0 0 127 0" result="hardAlpha"></feColorMatrix><feOffset dy="4"></feOffset><feGaussianBlur stdDeviation="2"></feGaussianBlur><feComposite in2="hardAlpha" operator="arithmetic" k2="-1" k3="1"></feComposite><feColorMatrix type="matrix" values="0 0 0 0 1 0 0 0 0 1 0 0 0 0 1 0 0 0 0.25 0"></feColorMatrix><feBlend mode="normal" in2="effect1_innerShadow_18_20" result="effect2_innerShadow_18_20"></feBlend></filter><pattern id="pattern1" patternContentUnits="objectBoundingBox" width="1" height="1"><use xlink:href="#image1_18_20" transform="scale(0.0625)"></use></pattern><filter id="filter2_ii_18_20" x="904" y="548" width="16" height="24" filterUnits="userSpaceOnUse" color-interpolation-filters="sRGB"><feFlood flood-opacity="0" result="BackgroundImageFix"></feFlood><feBlend mode="normal" in="SourceGraphic" in2="BackgroundImageFix" result="shape"></feBlend><feColorMatrix in="SourceAlpha" type="matrix" values="0 0 0 0 0 0 0 0 0 0 0 0 0 0 0 0 0 0 127 0" result="hardAlpha"></feColorMatrix><feOffset dy="-4"></feOffset><feGaussianBlur stdDeviation="2"></feGaussianBlur><feComposite in2="hardAlpha" operator="arithmetic" k2="-1" k3="1"></feComposite><feColorMatrix type="matrix" values="0 0 0 0 0 0 0 0 0 0 0 0 0 0 0 0 0 0 0.25 0"></feColorMatrix><feBlend mode="normal" in2="shape" result="effect1_innerShadow_18_20"></feBlend><feColorMatrix in="SourceAlpha" type="matrix" values="0 0 0 0 0 0 0 0 0 0 0 0 0 0 0 0 0 0 127 0" result="hardAlpha"></feColorMatrix><feOffset dy="4"></feOffset><feGaussianBlur stdDeviation="2"></feGaussianBlur><feComposite in2="hardAlpha" operator="arithmetic" k2="-1" k3="1"></feComposite><feColorMatrix type="matrix" values="0 0 0 0 1 0 0 0 0 1 0 0 0 0 1 0 0 0 0.25 0"></feColorMatrix><feBlend mode="normal" in2="effect1_innerShadow_18_20" result="effect2_innerShadow_18_20"></feBlend></filter><pattern id="pattern2" patternContentUnits="objectBoundingBox" width="1" height="1"><use xlink:href="#image1_18_20" transform="scale(0.0625)"></use></pattern><filter id="filter3_ii_18_20" x="904" y="12" width="16" height="24" filterUnits="userSpaceOnUse" color-interpolation-filters="sRGB"><feFlood flood-opacity="0" result="BackgroundImageFix"></feFlood><feBlend mode="normal" in="SourceGraphic" in2="BackgroundImageFix" result="shape"></feBlend><feColorMatrix in="SourceAlpha" type="matrix" values="0 0 0 0 0 0 0 0 0 0 0 0 0 0 0 0 0 0 127 0" result="hardAlpha"></feColorMatrix><feOffset dy="-4"></feOffset><feGaussianBlur stdDeviation="2"></feGaussianBlur><feComposite in2="hardAlpha" operator="arithmetic" k2="-1" k3="1"></feComposite><feColorMatrix type="matrix" values="0 0 0 0 0 0 0 0 0 0 0 0 0 0 0 0 0 0 0.25 0"></feColorMatrix><feBlend mode="normal" in2="shape" result="effect1_innerShadow_18_20"></feBlend><feColorMatrix in="SourceAlpha" type="matrix" values="0 0 0 0 0 0 0 0 0 0 0 0 0 0 0 0 0 0 127 0" result="hardAlpha"></feColorMatrix><feOffset dy="4"></feOffset><feGaussianBlur stdDeviation="2"></feGaussianBlur><feComposite in2="hardAlpha" operator="arithmetic" k2="-1" k3="1"></feComposite><feColorMatrix type="matrix" values="0 0 0 0 1 0 0 0 0 1 0 0 0 0 1 0 0 0 0.25 0"></feColorMatrix><feBlend mode="normal" in2="effect1_innerShadow_18_20" result="effect2_innerShadow_18_20"></feBlend></filter><pattern id="pattern3" patternContentUnits="objectBoundingBox" width="1" height="1"><use xlink:href="#image1_18_20" transform="scale(0.0625)"></use></pattern><filter id="filter4_ii_18_20" x="16" y="12" width="16" height="24" filterUnits="userSpaceOnUse" color-interpolation-filters="sRGB"><feFlood flood-opacity="0" result="BackgroundImageFix"></feFlood><feBlend mode="normal" in="SourceGraphic" in2="BackgroundImageFix" result="shape"></feBlend><feColorMatrix in="SourceAlpha" type="matrix" values="0 0 0 0 0 0 0 0 0 0 0 0 0 0 0 0 0 0 127 0" result="hardAlpha"></feColorMatrix><feOffset dy="-4"></feOffset><feGaussianBlur stdDeviation="2"></feGaussianBlur><feComposite in2="hardAlpha" operator="arithmetic" k2="-1" k3="1"></feComposite><feColorMatrix type="matrix" values="0 0 0 0 0 0 0 0 0 0 0 0 0 0 0 0 0 0 0.25 0"></feColorMatrix><feBlend mode="normal" in2="shape" result="effect1_innerShadow_18_20"></feBlend><feColorMatrix in="SourceAlpha" type="matrix" values="0 0 0 0 0 0 0 0 0 0 0 0 0 0 0 0 0 0 127 0" result="hardAlpha"></feColorMatrix><feOffset dy="4"></feOffset><feGaussianBlur stdDeviation="2"></feGaussianBlur><feComposite in2="hardAlpha" operator="arithmetic" k2="-1" k3="1"></feComposite><feColorMatrix type="matrix" values="0 0 0 0 1 0 0 0 0 1 0 0 0 0 1 0 0 0 0.25 0"></feColorMatrix><feBlend mode="normal" in2="effect1_innerShadow_18_20" result="effect2_innerShadow_18_20"></feBlend></filter><pattern id="pattern4" patternContentUnits="objectBoundingBox" width="1" height="1"><use xlink:href="#image1_18_20" transform="scale(0.0625)"></use></pattern><pattern id="pattern5" patternContentUnits="objectBoundingBox" width="1" height="1"><use xlink:href="#image2_18_20" transform="scale(0.00147059 0.0078125)"></use></pattern><filter id="filter5_di_18_20" x="112" y="456" width="728" height="184" filterUnits="userSpaceOnUse" color-interpolation-filters="sRGB"><feFlood flood-opacity="0" result="BackgroundImageFix"></feFlood><feColorMatrix in="SourceAlpha" type="matrix" values="0 0 0 0 0 0 0 0 0 0 0 0 0 0 0 0 0 0 127 0" result="hardAlpha"></feColorMatrix><feOffset dy="32"></feOffset><feGaussianBlur stdDeviation="12"></feGaussianBlur><feComposite in2="hardAlpha" operator="out"></feComposite><feColorMatrix type="matrix" values="0 0 0 0 0 0 0 0 0 0 0 0 0 0 0 0 0 0 1 0"></feColorMatrix><feBlend mode="normal" in2="BackgroundImageFix" result="effect1_dropShadow_18_20"></feBlend><feBlend mode="normal" in="SourceGraphic" in2="effect1_dropShadow_18_20" result="shape"></feBlend><feColorMatrix in="SourceAlpha" type="matrix" values="0 0 0 0 0 0 0 0 0 0 0 0 0 0 0 0 0 0 127 0" result="hardAlpha"></feColorMatrix><feOffset dy="2"></feOffset><feGaussianBlur stdDeviation="8"></feGaussianBlur><feComposite in2="hardAlpha" operator="arithmetic" k2="-1" k3="1"></feComposite><feColorMatrix type="matrix" values="0 0 0 0 1 0 0 0 0 1 0 0 0 0 1 0 0 0 0.05 0"></feColorMatrix><feBlend mode="normal" in2="shape" result="effect2_innerShadow_18_20"></feBlend></filter><filter id="filter6_i_18_20" x="48" y="48" width="840" height="372" filterUnits="userSpaceOnUse" color-interpolation-filters="sRGB"><feFlood flood-opacity="0" result="BackgroundImageFix"></feFlood><feBlend mode="normal" in="SourceGraphic" in2="BackgroundImageFix" result="shape"></feBlend><feColorMatrix in="SourceAlpha" type="matrix" values="0 0 0 0 0 0 0 0 0 0 0 0 0 0 0 0 0 0 127 0" result="hardAlpha"></feColorMatrix><feOffset dy="4"></feOffset><feGaussianBlur stdDeviation="8"></feGaussianBlur><feComposite in2="hardAlpha" operator="arithmetic" k2="-1" k3="1"></feComposite><feColorMatrix type="matrix" values="0 0 0 0 0 0 0 0 0 0 0 0 0 0 0 0 0 0 0.15 0"></feColorMatrix><feBlend mode="normal" in2="shape" result="effect1_innerShadow_18_20"></feBlend></filter><pattern id="pattern6" patternContentUnits="objectBoundingBox" width="1" height="1"><use xlink:href="#image3_18_20" transform="scale(0.00119048 0.00271739)"></use></pattern><pattern id="pattern7" patternContentUnits="objectBoundingBox" width="1" height="1"><use xlink:href="#image4_18_20" transform="scale(0.00181159 0.00657895)"></use></pattern><filter id="filter7_i_18_20" x="368" y="216" width="200" height="104" filterUnits="userSpaceOnUse" color-interpolation-filters="sRGB"><feFlood flood-opacity="0" result="BackgroundImageFix"></feFlood><feBlend mode="normal" in="SourceGraphic" in2="BackgroundImageFix" result="shape"></feBlend><feColorMatrix in="SourceAlpha" type="matrix" values="0 0 0 0 0 0 0 0 0 0 0 0 0 0 0 0 0 0 127 0" result="hardAlpha"></feColorMatrix><feOffset dy="16"></feOffset><feGaussianBlur stdDeviation="8"></feGaussianBlur><feComposite in2="hardAlpha" operator="arithmetic" k2="-1" k3="1"></feComposite><feColorMatrix type="matrix" values="0 0 0 0 0 0 0 0 0 0 0 0 0 0 0 0 0 0 0.25 0"></feColorMatrix><feBlend mode="normal" in2="shape" result="effect1_innerShadow_18_20"></feBlend></filter><filter id="filter8_i_18_20" x="216" y="208" width="104" height="108" filterUnits="userSpaceOnUse" color-interpolation-filters="sRGB"><feFlood flood-opacity="0" result="BackgroundImageFix"></feFlood><feBlend mode="normal" in="SourceGraphic" in2="BackgroundImageFix" result="shape"></feBlend><feColorMatrix in="SourceAlpha" type="matrix" values="0 0 0 0 0 0 0 0 0 0 0 0 0 0 0 0 0 0 127 0" result="hardAlpha"></feColorMatrix><feOffset dy="4"></feOffset><feGaussianBlur stdDeviation="4"></feGaussianBlur><feComposite in2="hardAlpha" operator="arithmetic" k2="-1" k3="1"></feComposite><feColorMatrix type="matrix" values="0 0 0 0 0 0 0 0 0 0 0 0 0 0 0 0 0 0 0.25 0"></feColorMatrix><feBlend mode="normal" in2="shape" result="effect1_innerShadow_18_20"></feBlend></filter><filter id="filter9_i_18_20" x="616" y="208" width="104" height="108" filterUnits="userSpaceOnUse" color-interpolation-filters="sRGB"><feFlood flood-opacity="0" result="BackgroundImageFix"></feFlood><feBlend mode="normal" in="SourceGraphic" in2="BackgroundImageFix" result="shape"></feBlend><feColorMatrix in="SourceAlpha" type="matrix" values="0 0 0 0 0 0 0 0 0 0 0 0 0 0 0 0 0 0 127 0" result="hardAlpha"></feColorMatrix><feOffset dy="4"></feOffset><feGaussianBlur stdDeviation="4"></feGaussianBlur><feComposite in2="hardAlpha" operator="arithmetic" k2="-1" k3="1"></feComposite><feColorMatrix type="matrix" values="0 0 0 0 0 0 0 0 0 0 0 0 0 0 0 0 0 0 0.25 0"></feColorMatrix><feBlend mode="normal" in2="shape" result="effect1_innerShadow_18_20"></feBlend></filter><radialGradient id="paint0_radial_18_20" cx="0" cy="0" r="1" gradientUnits="userSpaceOnUse" gradientTransform="translate(468) rotate(90) scale(576 936)"><stop stop-color="#2A2A31"></stop><stop offset="1" stop-color="#17171A"></stop></radialGradient><radialGradient id="paint1_radial_18_20" cx="0" cy="0" r="1" gradientUnits="userSpaceOnUse" gradientTransform="translate(476 456) rotate(90) scale(128 680)"><stop stop-color="#333344"></stop><stop offset="1" stop-color="#1B1B25"></stop></radialGradient><radialGradient id="paint2_radial_18_20" cx="0" cy="0" r="1" gradientUnits="userSpaceOnUse" gradientTransform="translate(468 184) rotate(90) scale(152 552)"><stop stop-color="#292930"></stop><stop offset="1" stop-color="#18181B"></stop></radialGradient><clipPath id="clip0_18_20"><rect width="936" height="584" fill="white"></rect></clipPath><clipPath id="clip1_18_20"><rect width="48" height="80" fill="white" transform="translate(344 76)"></rect></clipPath><clipPath id="clip2_18_20"><rect width="48" height="80" fill="white" transform="translate(444 76)"></rect></clipPath><clipPath id="clip3_18_20"><rect width="48" height="80" fill="white" transform="translate(544 76)"></rect></clipPath><rect id="image0_18_20" width="936" height="576" filter="url(#noise)"></rect><rect id="image1_18_20" width="16" height="16" filter="url(#noise)"></rect><rect id="image2_18_20" width="680" height="128" filter="url(#noise)"></rect><rect id="image3_18_20" width="840" height="368" filter="url(#noise)"></rect><rect id="image4_18_20" width="552" height="152" filter="url(#noise)"></rect></defs></svg>